<?xml version="1.0" encoding="utf-8"?>
<!-- Generator: Adobe Illustrator 26.2.1, SVG Export Plug-In . SVG Version: 6.00 Build 0)  -->
<svg version="1.1" id="Layer_1" xmlns="http://www.w3.org/2000/svg" xmlns:xlink="http://www.w3.org/1999/xlink" x="0px" y="0px"
	 width="779.53px" height="283.46px" viewBox="0 0 779.53 283.46" enable-background="new 0 0 779.53 283.46" xml:space="preserve">
<path fill-rule="evenodd" clip-rule="evenodd" fill="#5E2483" d="M247.68,134.91v82.54c0,11.52,1.46,20.37,4.37,26.5
	c2.92,6.06,7.14,9.13,12.65,9.13c5.48,0,9.71-3.07,12.63-9.13c2.95-6.13,4.41-14.98,4.41-26.5v-82.54h10.53v83.36
	c0,15.74-2.48,28.3-7.51,37.6c-5.05,9.33-11.75,13.99-20.06,13.99c-8.37,0-15.05-4.66-20.02-13.99c-5.02-9.3-7.53-21.86-7.53-37.6
	v-83.36H247.68z M305.29,134.91h10.53v89.21c0,8.7,1.35,15.38,4.13,20.08c2.71,4.71,6.61,7.04,11.69,7.04h14.4v16.27h-12.56
	c-9.49,0-16.57-3.83-21.2-11.45c-4.69-7.67-6.98-19.27-6.98-34.83V134.91z M361.69,267.51V150.66h-20.26v-15.75h51.15v15.75h-20.29
	v116.85H361.69z M411.39,193.35h13.54c5.13,0,9.14-2,11.98-5.86c2.84-3.89,4.27-9.27,4.27-16.25c0-6.58-1.31-11.89-4.01-16.03
	c-2.67-4.18-6.15-6.22-10.41-6.22c-4.7,0-8.43,2.68-11.2,8.01c-2.77,5.29-4.18,12.44-4.18,21.53V193.35z M411.39,209.49v58.03
	h-10.41v-85c0-15.52,2.3-27.68,6.9-36.53c4.62-8.86,10.95-13.33,18.99-13.33c7.16,0,13.07,3.64,17.9,10.82
	c4.75,7.19,7.16,16.01,7.16,26.51c0,6.33-0.91,11.95-2.72,16.88c-1.84,4.94-4.44,9-7.94,12.24c4.12,1.84,7.13,5.34,9.03,10.52
	c1.83,5.13,2.8,12.42,2.8,21.85v36.04h-10.46v-29.3c0-11.14-1.1-18.77-3.26-22.74c-2.14-4.01-6.08-5.99-11.71-5.99H411.39z
	 M506.96,191.58v-6.96c0-11.46-1.47-20.37-4.4-26.46c-2.92-6.08-7.12-9.18-12.62-9.18c-5.5,0-9.75,3.1-12.68,9.18
	c-2.89,6.1-4.34,15.01-4.34,26.46v6.96H506.96z M506.96,267.51v-62.07h-34.04v62.07h-10.58v-83.22c0-15.83,2.52-28.39,7.53-37.67
	c5.03-9.25,11.73-13.97,20.07-13.97c8.3,0,15.01,4.72,20.04,13.97c5.04,9.28,7.57,21.83,7.57,37.67v83.22H506.96z M521.88,134.91
	h10.57l20.6,112.16l20.71-112.16h10.53l-21.81,117.83c-1.19,6.21-2.48,10.66-3.94,13.27c-1.41,2.56-3.27,3.85-5.49,3.85
	c-2.17,0-4.02-1.29-5.45-3.85c-1.4-2.58-2.72-6.96-3.95-13.27L521.88,134.91z M635.25,150.66c-0.45-0.08-0.9-0.14-1.4-0.2
	c-0.5,0-1.17,0-2.13,0c-9.79,0-17.57,3.42-23.34,10.23c-5.72,6.83-9.41,17.04-11.06,30.61h37.92v15.72h-38.47
	c1.31,14.73,4.88,25.86,10.67,33.31c5.8,7.51,13.8,11.23,23.86,11.23c1.08,0,1.9,0,2.43-0.02c0.57-0.02,1.07-0.05,1.51-0.13v16.09
	h-3.05c-5.9,0-11.05-0.74-15.5-2.27c-4.5-1.59-8.25-3.84-11.28-6.92c-6.34-6.51-11.21-14.62-14.51-24.31
	c-3.32-9.78-5.01-20.71-5.01-32.86c0-12.12,1.69-23.01,5.01-32.72c3.3-9.64,8.17-17.77,14.51-24.12c3.03-3.14,6.78-5.42,11.28-7.02
	c4.45-1.6,9.61-2.38,15.5-2.38h3.05V150.66z M661.91,267.51V150.66h-27.7v-15.75h58.58v15.75H672.5v116.85H661.91z M702.34,267.51
	V134.91h10.57v132.61H702.34z M724.53,267.51v-17.59h27.07c4.33,0,7.6-1.43,9.85-4.24c2.21-2.9,3.34-6.97,3.34-12.5
	c0-4.28-0.84-7.94-2.56-11.17c-1.7-3.2-4.93-6.79-9.67-10.76l-13.32-11.39c-4.88-4.14-8.48-8.94-10.86-14.35
	c-2.35-5.37-3.53-11.55-3.53-18.39c0-9.99,2.13-17.82,6.47-23.57c4.33-5.71,10.29-8.64,17.78-8.64h22.95v17.53H745.6
	c-3.02,0-5.41,1.31-7.24,3.9c-1.79,2.55-2.65,5.9-2.65,10.07c0,3.83,0.78,7.12,2.34,9.97c1.61,2.82,5.32,6.74,11.28,11.88
	l11.59,9.81c5.05,4.29,8.78,9.27,11.24,14.85c2.41,5.52,3.6,12.02,3.6,19.38c0,11.11-2.3,19.86-6.85,26.02
	c-4.56,6.11-11.03,9.2-19.35,9.2H724.53z"/>
<path fill-rule="evenodd" clip-rule="evenodd" fill="#EB5D0B" d="M52.26,71.15c-8.82,1.24-9.83-16.84-15.82-22.32
	C28.58,34.17,16.35,16.3,4.26,3.23C4.61,2.28,3.53,0.67,5.34,0c21.54,9.95,39.08,38.59,48.76,57.78
	C55.19,61.59,55.83,69.55,52.26,71.15"/>
<path fill-rule="evenodd" clip-rule="evenodd" fill="#5E2483" d="M143.12,274.69c-30.92,13.78-68.22,12.01-94.08-10.12
	c-14.76-16.87-25.32-36.36-25.72-57.95c-0.72-39.37,24.86-72.38,38.17-107.33c-13.02,5.19-26.51,10.48-40.17,6.73
	C8.02,100.15,6.7,78.87,5.97,64.77c6.78,11.86,18.64,26.37,35.01,24.45c16.14-1.93,26.82-17.95,37.01-29.33
	c30.77,61.41-54,157.51-4.29,198.19c15.82,16.22,41.85,10.13,60.89,2.84c40.25-37.96,10.77-93.99,3.06-137.84
	c-3.55-20.05-0.57-45.26,19.18-56.67c6.48-1.65,14.24-4.75,21.38-2.38c-1.79,6.56-14.64,9.86-17.18,16.09
	c-10.78,19-5.25,39.31,1.4,59.79c6.69,20.48,12.65,41.86,14.07,61.69C175.8,232,170.4,256.71,143.12,274.69z"/>
<path fill-rule="evenodd" clip-rule="evenodd" fill="#EB5D0B" d="M107.99,139.05c-7.74,21.85-17.39,37.29-27.94,58.17
	c-7.01,10.18-13.6,0.39-6.31-14.64c3.97-8.18,71.94-152.92,100.94-160.56C150.82,58.71,118.46,98.84,107.99,139.05z"/>
</svg>
